<svg width="24" height="24" viewBox="0 0 24 24" fill="none" xmlns="http://www.w3.org/2000/svg">
<path d="M11.9999 3C16.9707 3 21 7.0292 21 12C21 16.9708 16.9707 21 11.9999 21C7.0291 21 3 16.9708 3 12C3 7.0292 7.02929 3 11.9999 3ZM17.508 10.5987C17.51 10.5952 17.51 10.5897 17.5122 10.5857L17.5178 10.5636C17.5178 10.5593 17.5198 10.5558 17.5198 10.5525L17.5253 10.5282C17.5253 10.5227 17.5273 10.5192 17.5273 10.5157C17.5288 10.508 17.5288 10.4984 17.5308 10.4914C17.5308 10.4859 17.533 10.4817 17.533 10.4762C17.533 10.4694 17.535 10.4616 17.535 10.4541C17.5363 10.4493 17.5363 10.4416 17.5363 10.4355V10.4362C17.5363 10.4307 17.5383 10.4252 17.5363 10.4154C17.5383 10.4044 17.5383 10.3912 17.5383 10.3786C17.5383 10.3656 17.5363 10.3544 17.5363 10.3413L17.535 10.3233L17.533 10.3045C17.533 10.2969 17.533 10.2892 17.5308 10.2824C17.5308 10.2769 17.5288 10.2726 17.5288 10.2671C17.5286 10.2592 17.5273 10.2513 17.5253 10.2436C17.5253 10.2373 17.5233 10.2338 17.5233 10.2305L17.5178 10.2064C17.5178 10.2022 17.5178 10.1987 17.5157 10.1954L17.5102 10.1733C17.5082 10.1698 17.5082 10.1643 17.5062 10.1608C17.5049 10.1545 17.5007 10.147 17.4986 10.14L17.4931 10.1247C17.4911 10.1192 17.4876 10.1122 17.4861 10.1067L17.4792 10.0901C17.4779 10.0846 17.4744 10.0791 17.4724 10.0734C17.4709 10.0678 17.4681 10.0603 17.4641 10.0546C17.4606 10.0505 17.4593 10.0448 17.4571 10.0421C17.4551 10.0338 17.4516 10.0283 17.4474 10.0213C17.4442 10.0182 17.4417 10.0143 17.4398 10.0102C17.4363 10.0025 17.4321 9.99718 17.4281 9.98945C17.4251 9.98632 17.4229 9.98283 17.4211 9.97915C17.417 9.97142 17.4113 9.96534 17.4073 9.95835C17.4058 9.9543 17.4018 9.95062 17.3996 9.94731L17.3843 9.92652L17.3753 9.91548C17.3711 9.90996 17.3678 9.90444 17.3621 9.89891C17.358 9.89339 17.3523 9.8899 17.3483 9.88438C17.3442 9.88088 17.3406 9.87462 17.3372 9.87131L17.3102 9.84353L15.486 8.06852C15.1785 7.77207 14.6914 7.77207 14.3838 8.06852C14.0793 8.36478 14.0793 8.84396 14.3838 9.14022L14.8789 9.62142H7.28553C6.85356 9.62142 6.50541 9.96203 6.50541 10.3801C6.50541 10.8004 6.85576 11.1395 7.28553 11.1395H16.7624C16.7735 11.1395 16.7867 11.1373 16.8005 11.1373L16.817 11.1353L16.8365 11.134C16.8442 11.1342 16.852 11.1337 16.8593 11.132C16.8648 11.132 16.8691 11.13 16.8746 11.13C16.8827 11.1296 16.8909 11.1285 16.8988 11.1265C16.9051 11.1265 16.9086 11.1245 16.9128 11.1245L16.9371 11.1189C16.9433 11.1175 16.9468 11.1175 16.9509 11.1154L16.9729 11.1099C16.9771 11.1079 16.9832 11.1079 16.9869 11.1057L17.0077 11.0989L17.0229 11.0926L17.0424 11.0856L17.0589 11.0801L17.0762 11.0724C17.0817 11.0709 17.0893 11.0689 17.095 11.0647C17.099 11.0612 17.1047 11.0599 17.1088 11.0578C17.1157 11.0558 17.1227 11.0523 17.1295 11.0481C17.133 11.0451 17.1371 11.0428 17.1413 11.0411L17.1621 11.0301C17.1656 11.0271 17.1696 11.0247 17.1738 11.0232C17.1808 11.019 17.1871 11.0135 17.1946 11.0093C17.1988 11.0078 17.2021 11.0037 17.2056 11.0025L17.2264 10.9872L17.2382 10.9789L17.2554 10.9651C17.261 10.9616 17.2645 10.9561 17.27 10.9526L17.2838 10.9415C17.2928 10.9318 17.3025 10.9248 17.3122 10.9152C17.322 10.9062 17.3295 10.8965 17.3385 10.8876C17.3426 10.8841 17.3463 10.8786 17.3496 10.8744C17.3538 10.8689 17.36 10.8654 17.3633 10.8598C17.3676 10.8543 17.3731 10.8488 17.3766 10.8431L17.3863 10.8321C17.3918 10.8252 17.3981 10.819 17.4021 10.8113C17.4034 10.8078 17.4071 10.8045 17.4091 10.801C17.4132 10.7934 17.4189 10.7872 17.4229 10.7802C17.4264 10.7761 17.4284 10.7726 17.4299 10.7691L17.4417 10.7491L17.4492 10.7373C17.4512 10.7305 17.4547 10.7248 17.4589 10.718C17.4624 10.7139 17.4644 10.7084 17.4665 10.7042C17.4678 10.6986 17.472 10.6917 17.474 10.6861C17.4755 10.6806 17.4795 10.6751 17.4817 10.6696L17.4872 10.6523L17.495 10.6335L17.5005 10.6197C17.5045 10.6133 17.506 10.6057 17.508 10.5987ZM6.46368 13.6567L6.46497 13.6755L6.46699 13.6942C6.46699 13.7012 6.46699 13.7088 6.46901 13.7163C6.46901 13.7218 6.47122 13.7253 6.47122 13.7308C6.4714 13.7389 6.47269 13.7472 6.47471 13.7551C6.47471 13.7607 6.47673 13.7642 6.47673 13.7677L6.48225 13.7919C6.48225 13.7962 6.48225 13.7995 6.48427 13.803L6.48978 13.8251C6.49199 13.8293 6.49199 13.8348 6.49401 13.8383C6.49548 13.8446 6.49953 13.8514 6.50155 13.8584C6.50302 13.8646 6.50504 13.8681 6.50706 13.8736L6.51405 13.8924L6.52085 13.909C6.52213 13.9145 6.52581 13.9202 6.52783 13.9257C6.5293 13.9312 6.53188 13.9382 6.53611 13.9438C6.5396 13.9478 6.54088 13.9535 6.54291 13.9568C6.54511 13.9638 6.54842 13.9699 6.55265 13.9776C6.55614 13.9811 6.55816 13.9846 6.56037 13.9879C6.56386 13.9955 6.56791 14.0017 6.57213 14.0087C6.57563 14.0128 6.57765 14.0164 6.57912 14.0198C6.58316 14.0267 6.58886 14.0328 6.59291 14.0405C6.59438 14.044 6.59842 14.0475 6.60063 14.0508C6.60614 14.0584 6.60963 14.0647 6.61588 14.0716L6.62489 14.0827C6.62912 14.0882 6.63261 14.0937 6.63886 14.0994C6.64437 14.105 6.64787 14.1105 6.65412 14.116C6.65816 14.1195 6.66165 14.1257 6.66514 14.1291L6.69217 14.1568L8.51711 15.9319C8.82096 16.2281 9.31323 16.2281 9.61781 15.9319C9.9224 15.6356 9.9224 15.1564 9.61781 14.8601L9.12353 14.3789H16.7189C17.1501 14.3789 17.4985 14.0383 17.4985 13.6203C17.4985 13.2 17.1481 12.8608 16.7189 12.8608H7.23976C7.22873 12.8608 7.2155 12.8628 7.20171 12.8628C7.19619 12.8628 7.19068 12.8649 7.18443 12.8649L7.16568 12.8663C7.15796 12.8663 7.14969 12.8663 7.14289 12.8684C7.13737 12.8684 7.13315 12.8706 7.12763 12.8706C7.11954 12.8708 7.11127 12.872 7.10337 12.8741C7.09638 12.8741 7.09289 12.8761 7.0894 12.8761L7.06513 12.8816C7.05833 12.8829 7.05484 12.8829 7.05135 12.8851L7.02855 12.8906C7.02433 12.8928 7.01881 12.8928 7.01458 12.8949L6.99381 12.9017L6.97929 12.9079L6.95981 12.9149L6.94253 12.9204L6.92598 12.928C6.91973 12.9295 6.9122 12.9315 6.90723 12.9357C6.90319 12.9392 6.89676 12.9405 6.89345 12.9425C6.88573 12.9447 6.87948 12.948 6.87268 12.9523C6.86918 12.9552 6.86514 12.9576 6.86091 12.9593L6.84014 12.9703C6.83591 12.9738 6.8326 12.9758 6.82837 12.9773C6.82139 12.9814 6.81514 12.9871 6.8076 12.9911C6.80411 12.9926 6.79988 12.9966 6.79584 12.9981L6.77507 13.0134L6.76385 13.0217C6.75834 13.0257 6.75209 13.0299 6.74658 13.0355C6.74106 13.0389 6.73683 13.0445 6.73205 13.048L6.71827 13.059L6.68978 13.0853L6.66276 13.1131C6.65853 13.1166 6.65504 13.1221 6.65173 13.1262C6.6475 13.1317 6.64198 13.1352 6.63867 13.1407L6.6247 13.1575L6.6157 13.1685C6.60945 13.1755 6.60393 13.1816 6.59989 13.1893C6.59842 13.1928 6.59438 13.1963 6.59291 13.1996C6.58886 13.2073 6.58316 13.2134 6.57912 13.2204C6.57599 13.2235 6.57342 13.2274 6.57158 13.2314C6.56809 13.2392 6.56386 13.2445 6.55982 13.2515C6.55632 13.2555 6.55504 13.2592 6.55283 13.2633C6.55081 13.2703 6.54732 13.2758 6.54309 13.2826C6.5396 13.2866 6.53758 13.2923 6.53555 13.2964L6.52783 13.3144C6.52581 13.3199 6.52232 13.3255 6.52085 13.331L6.51405 13.3483L6.50706 13.367L6.50081 13.3809C6.49732 13.3873 6.49511 13.3943 6.49401 13.4016C6.49199 13.4051 6.49199 13.4107 6.48978 13.4147L6.48427 13.4368C6.48427 13.441 6.48427 13.4443 6.48225 13.448L6.47673 13.4723C6.47673 13.4778 6.47471 13.4813 6.47471 13.4848C6.47269 13.4925 6.47269 13.5021 6.47122 13.5091C6.47122 13.5146 6.46901 13.5189 6.46901 13.5244C6.46901 13.5312 6.46699 13.5389 6.46699 13.5465C6.46497 13.552 6.46497 13.559 6.46497 13.5645C6.46368 13.572 6.46368 13.5776 6.46368 13.5831C6.46166 13.5941 6.46166 13.6066 6.46166 13.6204C6.46147 13.6326 6.46368 13.6436 6.46368 13.6567Z" fill="#00968E"/>
</svg>
